<mxfile host="app.diagrams.net" agent="Mozilla/5.0 (Windows NT 10.0; Win64; x64) AppleWebKit/537.36 (KHTML, like Gecko) Chrome/135.0.0.0 Safari/537.36" version="26.2.10">
  <diagram id="C5RBs43oDa-KdzZeNtuy" name="Page-1">
    <mxGraphModel dx="870" dy="468" grid="1" gridSize="10" guides="1" tooltips="1" connect="1" arrows="1" fold="1" page="1" pageScale="1" pageWidth="827" pageHeight="1169" math="0" shadow="0">
      <root>
        <mxCell id="WIyWlLk6GJQsqaUBKTNV-0" />
        <mxCell id="WIyWlLk6GJQsqaUBKTNV-1" parent="WIyWlLk6GJQsqaUBKTNV-0" />
        <mxCell id="p2GM-OQWzpEx61T8rj91-21" style="edgeStyle=orthogonalEdgeStyle;rounded=0;orthogonalLoop=1;jettySize=auto;html=1;exitX=0.5;exitY=1;exitDx=0;exitDy=0;exitPerimeter=0;entryX=0.5;entryY=0;entryDx=0;entryDy=0;" edge="1" parent="WIyWlLk6GJQsqaUBKTNV-1" source="p2GM-OQWzpEx61T8rj91-0" target="p2GM-OQWzpEx61T8rj91-3">
          <mxGeometry relative="1" as="geometry" />
        </mxCell>
        <mxCell id="p2GM-OQWzpEx61T8rj91-0" value="INICIO" style="strokeWidth=2;html=1;shape=mxgraph.flowchart.start_1;whiteSpace=wrap;fillColor=#d5e8d4;strokeColor=#82b366;" vertex="1" parent="WIyWlLk6GJQsqaUBKTNV-1">
          <mxGeometry x="360" y="260" width="100" height="60" as="geometry" />
        </mxCell>
        <mxCell id="p2GM-OQWzpEx61T8rj91-43" value="" style="edgeStyle=orthogonalEdgeStyle;rounded=0;orthogonalLoop=1;jettySize=auto;html=1;" edge="1" parent="WIyWlLk6GJQsqaUBKTNV-1" source="p2GM-OQWzpEx61T8rj91-1" target="p2GM-OQWzpEx61T8rj91-2">
          <mxGeometry relative="1" as="geometry" />
        </mxCell>
        <mxCell id="p2GM-OQWzpEx61T8rj91-1" value="" style="verticalLabelPosition=bottom;verticalAlign=top;html=1;shape=mxgraph.flowchart.on-page_reference;fillColor=#f5f5f5;gradientColor=#b3b3b3;strokeColor=#666666;" vertex="1" parent="WIyWlLk6GJQsqaUBKTNV-1">
          <mxGeometry x="401.5" y="970" width="25" height="30" as="geometry" />
        </mxCell>
        <mxCell id="p2GM-OQWzpEx61T8rj91-2" value="FIM" style="strokeWidth=2;html=1;shape=mxgraph.flowchart.start_1;whiteSpace=wrap;fillColor=#d5e8d4;strokeColor=#82b366;" vertex="1" parent="WIyWlLk6GJQsqaUBKTNV-1">
          <mxGeometry x="364" y="1040" width="100" height="60" as="geometry" />
        </mxCell>
        <mxCell id="p2GM-OQWzpEx61T8rj91-3" value="QNT-3 = 0&lt;div&gt;QNT-5 = 0&lt;/div&gt;&lt;div&gt;RESTANTE = 0&lt;/div&gt;" style="rounded=1;whiteSpace=wrap;html=1;absoluteArcSize=1;arcSize=14;strokeWidth=2;fillColor=#f5f5f5;fontColor=#333333;strokeColor=#666666;" vertex="1" parent="WIyWlLk6GJQsqaUBKTNV-1">
          <mxGeometry x="360" y="340" width="100" height="60" as="geometry" />
        </mxCell>
        <mxCell id="p2GM-OQWzpEx61T8rj91-17" style="edgeStyle=orthogonalEdgeStyle;rounded=0;orthogonalLoop=1;jettySize=auto;html=1;exitX=0.5;exitY=1;exitDx=0;exitDy=0;entryX=0.5;entryY=0;entryDx=0;entryDy=0;" edge="1" parent="WIyWlLk6GJQsqaUBKTNV-1" source="p2GM-OQWzpEx61T8rj91-4" target="p2GM-OQWzpEx61T8rj91-5">
          <mxGeometry relative="1" as="geometry" />
        </mxCell>
        <mxCell id="p2GM-OQWzpEx61T8rj91-4" value="&lt;div&gt;&lt;br&gt;&lt;/div&gt;QNT-GASTAR" style="html=1;strokeWidth=2;shape=manualInput;whiteSpace=wrap;rounded=1;size=26;arcSize=11;fillColor=#dae8fc;strokeColor=#6c8ebf;" vertex="1" parent="WIyWlLk6GJQsqaUBKTNV-1">
          <mxGeometry x="360" y="420" width="100" height="60" as="geometry" />
        </mxCell>
        <mxCell id="p2GM-OQWzpEx61T8rj91-39" style="edgeStyle=orthogonalEdgeStyle;rounded=0;orthogonalLoop=1;jettySize=auto;html=1;exitX=0.5;exitY=1;exitDx=0;exitDy=0;" edge="1" parent="WIyWlLk6GJQsqaUBKTNV-1" source="p2GM-OQWzpEx61T8rj91-5" target="p2GM-OQWzpEx61T8rj91-36">
          <mxGeometry relative="1" as="geometry" />
        </mxCell>
        <mxCell id="p2GM-OQWzpEx61T8rj91-5" value="QNT-3 = QNT-GASTAR // 3" style="rounded=1;whiteSpace=wrap;html=1;absoluteArcSize=1;arcSize=14;strokeWidth=2;fillColor=#f5f5f5;fontColor=#333333;strokeColor=#666666;" vertex="1" parent="WIyWlLk6GJQsqaUBKTNV-1">
          <mxGeometry x="325" y="510" width="170" height="40" as="geometry" />
        </mxCell>
        <mxCell id="p2GM-OQWzpEx61T8rj91-13" value="" style="edgeStyle=orthogonalEdgeStyle;rounded=0;orthogonalLoop=1;jettySize=auto;html=1;" edge="1" parent="WIyWlLk6GJQsqaUBKTNV-1" target="p2GM-OQWzpEx61T8rj91-11">
          <mxGeometry relative="1" as="geometry">
            <mxPoint x="413.5" y="700" as="sourcePoint" />
          </mxGeometry>
        </mxCell>
        <mxCell id="p2GM-OQWzpEx61T8rj91-7" value="RESTANTE = QNT-GASTAR - (QNT-3 * 3)" style="rounded=1;whiteSpace=wrap;html=1;absoluteArcSize=1;arcSize=14;strokeWidth=2;fillColor=#f5f5f5;fontColor=#333333;strokeColor=#666666;" vertex="1" parent="WIyWlLk6GJQsqaUBKTNV-1">
          <mxGeometry x="290" y="670" width="235" height="40" as="geometry" />
        </mxCell>
        <mxCell id="p2GM-OQWzpEx61T8rj91-23" value="" style="edgeStyle=orthogonalEdgeStyle;rounded=0;orthogonalLoop=1;jettySize=auto;html=1;" edge="1" parent="WIyWlLk6GJQsqaUBKTNV-1" source="p2GM-OQWzpEx61T8rj91-11" target="p2GM-OQWzpEx61T8rj91-22">
          <mxGeometry relative="1" as="geometry" />
        </mxCell>
        <mxCell id="p2GM-OQWzpEx61T8rj91-25" value="S" style="edgeLabel;html=1;align=center;verticalAlign=middle;resizable=0;points=[];" vertex="1" connectable="0" parent="p2GM-OQWzpEx61T8rj91-23">
          <mxGeometry x="-0.2917" y="1" relative="1" as="geometry">
            <mxPoint as="offset" />
          </mxGeometry>
        </mxCell>
        <mxCell id="p2GM-OQWzpEx61T8rj91-34" style="edgeStyle=orthogonalEdgeStyle;rounded=0;orthogonalLoop=1;jettySize=auto;html=1;exitX=0;exitY=0.5;exitDx=0;exitDy=0;exitPerimeter=0;entryX=1;entryY=0.5;entryDx=0;entryDy=0;" edge="1" parent="WIyWlLk6GJQsqaUBKTNV-1" source="p2GM-OQWzpEx61T8rj91-11" target="p2GM-OQWzpEx61T8rj91-33">
          <mxGeometry relative="1" as="geometry" />
        </mxCell>
        <mxCell id="p2GM-OQWzpEx61T8rj91-42" value="N" style="edgeLabel;html=1;align=center;verticalAlign=middle;resizable=0;points=[];" vertex="1" connectable="0" parent="p2GM-OQWzpEx61T8rj91-34">
          <mxGeometry x="-0.2262" y="-2" relative="1" as="geometry">
            <mxPoint as="offset" />
          </mxGeometry>
        </mxCell>
        <mxCell id="p2GM-OQWzpEx61T8rj91-11" value="RESTANTE % 5&lt;div&gt;&amp;nbsp;= 0&lt;/div&gt;" style="strokeWidth=2;html=1;shape=mxgraph.flowchart.decision;whiteSpace=wrap;fillColor=#ffe6cc;strokeColor=#d79b00;" vertex="1" parent="WIyWlLk6GJQsqaUBKTNV-1">
          <mxGeometry x="364" y="750" width="100" height="100" as="geometry" />
        </mxCell>
        <mxCell id="p2GM-OQWzpEx61T8rj91-19" style="edgeStyle=orthogonalEdgeStyle;rounded=0;orthogonalLoop=1;jettySize=auto;html=1;exitX=0.5;exitY=1;exitDx=0;exitDy=0;entryX=0.497;entryY=0.175;entryDx=0;entryDy=0;entryPerimeter=0;" edge="1" parent="WIyWlLk6GJQsqaUBKTNV-1" source="p2GM-OQWzpEx61T8rj91-3" target="p2GM-OQWzpEx61T8rj91-4">
          <mxGeometry relative="1" as="geometry" />
        </mxCell>
        <mxCell id="p2GM-OQWzpEx61T8rj91-22" value="QNT-5 = RESTANTE % 5" style="whiteSpace=wrap;html=1;fillColor=#f5f5f5;strokeColor=#666666;strokeWidth=2;fontColor=#333333;" vertex="1" parent="WIyWlLk6GJQsqaUBKTNV-1">
          <mxGeometry x="336" y="890" width="156" height="40" as="geometry" />
        </mxCell>
        <mxCell id="p2GM-OQWzpEx61T8rj91-24" style="edgeStyle=orthogonalEdgeStyle;rounded=0;orthogonalLoop=1;jettySize=auto;html=1;exitX=0.5;exitY=1;exitDx=0;exitDy=0;entryX=0.5;entryY=0;entryDx=0;entryDy=0;entryPerimeter=0;" edge="1" parent="WIyWlLk6GJQsqaUBKTNV-1" source="p2GM-OQWzpEx61T8rj91-22" target="p2GM-OQWzpEx61T8rj91-1">
          <mxGeometry relative="1" as="geometry" />
        </mxCell>
        <mxCell id="p2GM-OQWzpEx61T8rj91-30" value="278" style="text;html=1;align=center;verticalAlign=middle;resizable=0;points=[];autosize=1;strokeColor=none;fillColor=none;" vertex="1" parent="WIyWlLk6GJQsqaUBKTNV-1">
          <mxGeometry x="620" y="440" width="40" height="30" as="geometry" />
        </mxCell>
        <mxCell id="p2GM-OQWzpEx61T8rj91-31" value="92" style="text;html=1;align=center;verticalAlign=middle;resizable=0;points=[];autosize=1;strokeColor=none;fillColor=none;" vertex="1" parent="WIyWlLk6GJQsqaUBKTNV-1">
          <mxGeometry x="620" y="515" width="40" height="30" as="geometry" />
        </mxCell>
        <mxCell id="p2GM-OQWzpEx61T8rj91-32" value="92" style="text;html=1;align=center;verticalAlign=middle;resizable=0;points=[];autosize=1;strokeColor=none;fillColor=none;" vertex="1" parent="WIyWlLk6GJQsqaUBKTNV-1">
          <mxGeometry x="620" y="580" width="40" height="30" as="geometry" />
        </mxCell>
        <mxCell id="p2GM-OQWzpEx61T8rj91-33" value="QNT-3 = QNT-3 - 1" style="whiteSpace=wrap;html=1;fillColor=#f5f5f5;strokeColor=#666666;strokeWidth=2;fontColor=#333333;" vertex="1" parent="WIyWlLk6GJQsqaUBKTNV-1">
          <mxGeometry x="180" y="780" width="156" height="40" as="geometry" />
        </mxCell>
        <mxCell id="p2GM-OQWzpEx61T8rj91-41" style="edgeStyle=orthogonalEdgeStyle;rounded=0;orthogonalLoop=1;jettySize=auto;html=1;exitX=0.5;exitY=1;exitDx=0;exitDy=0;exitPerimeter=0;entryX=0.5;entryY=0;entryDx=0;entryDy=0;" edge="1" parent="WIyWlLk6GJQsqaUBKTNV-1" source="p2GM-OQWzpEx61T8rj91-36" target="p2GM-OQWzpEx61T8rj91-7">
          <mxGeometry relative="1" as="geometry" />
        </mxCell>
        <mxCell id="p2GM-OQWzpEx61T8rj91-36" value="" style="verticalLabelPosition=bottom;verticalAlign=top;html=1;shape=mxgraph.flowchart.on-page_reference;fillColor=#f5f5f5;gradientColor=#b3b3b3;strokeColor=#666666;" vertex="1" parent="WIyWlLk6GJQsqaUBKTNV-1">
          <mxGeometry x="397.5" y="610" width="25" height="30" as="geometry" />
        </mxCell>
        <mxCell id="p2GM-OQWzpEx61T8rj91-38" style="edgeStyle=orthogonalEdgeStyle;rounded=0;orthogonalLoop=1;jettySize=auto;html=1;exitX=0;exitY=0.5;exitDx=0;exitDy=0;entryX=0;entryY=0.5;entryDx=0;entryDy=0;entryPerimeter=0;" edge="1" parent="WIyWlLk6GJQsqaUBKTNV-1" source="p2GM-OQWzpEx61T8rj91-33" target="p2GM-OQWzpEx61T8rj91-36">
          <mxGeometry relative="1" as="geometry" />
        </mxCell>
      </root>
    </mxGraphModel>
  </diagram>
</mxfile>
